<svg xmlns="http://www.w3.org/2000/svg" viewBox="0 0 491.111 136.325"><polygon points="333.983 91.091 339.184 91.091 332.115 78.671 338.104 81.076 330.797 67.603 334.275 68.878 328.384 55.741 322.493 68.878 325.971 67.603 318.664 81.076 324.653 78.671 317.584 91.091 322.785 91.091 315.557 106.35 326.698 105.412 326.698 114.561 328.384 114.561 330.07 114.561 330.07 105.412 341.212 106.35 333.983 91.091" fill="#414042"/><polygon points="422.421 96.698 425.624 96.698 421.27 90.38 424.958 91.603 420.458 84.75 422.6 85.398 418.972 78.716 415.345 85.398 417.487 84.75 412.986 91.603 416.675 90.38 412.321 96.698 415.524 96.698 411.073 104.46 417.934 103.982 417.934 108.636 418.972 108.636 420.011 108.636 420.011 103.982 426.872 104.46 422.421 96.698" fill="#414042"/><polygon points="451.531 111.448 453.603 111.448 450.787 107.362 453.173 108.153 450.262 103.72 451.648 104.14 449.301 99.818 446.955 104.14 448.34 103.72 445.43 108.153 447.815 107.362 444.999 111.448 447.071 111.448 444.192 116.468 448.63 116.159 448.63 119.169 449.301 119.169 449.973 119.169 449.973 116.159 454.41 116.468 451.531 111.448" fill="#414042"/><polygon points="255.5 89.487 258.703 89.487 254.349 83.169 258.037 84.393 253.537 77.539 255.679 78.188 252.052 71.506 248.424 78.188 250.566 77.539 246.066 84.393 249.754 83.169 245.4 89.487 248.603 89.487 244.152 97.249 251.013 96.772 251.013 101.425 252.052 101.425 253.09 101.425 253.09 96.772 259.951 97.249 255.5 89.487" fill="#414042"/><polygon points="96.848 96.496 100.814 96.496 95.424 88.25 99.991 89.847 94.419 80.903 97.071 81.75 92.579 73.029 88.087 81.75 90.739 80.903 85.167 89.847 89.734 88.25 84.343 96.496 88.309 96.496 82.798 106.625 91.293 106.002 91.293 112.075 92.579 112.075 93.864 112.075 93.864 106.002 102.36 106.625 96.848 96.496" fill="#414042"/><polygon points="230.232 97.62 234.197 97.62 228.807 89.375 233.374 90.971 227.802 82.027 230.454 82.874 225.962 74.154 221.47 82.874 224.122 82.027 218.55 90.971 223.117 89.375 217.727 97.62 221.693 97.62 216.181 107.749 224.677 107.126 224.677 113.199 225.962 113.199 227.247 113.199 227.247 107.126 235.743 107.749 230.232 97.62" fill="#414042"/><polygon points="152.187 93.89 154.599 93.89 151.321 86.965 154.098 88.306 150.71 80.793 152.323 81.504 149.591 74.179 146.859 81.504 148.472 80.793 145.083 88.306 147.86 86.965 144.582 93.89 146.994 93.89 143.642 102.399 148.809 101.876 148.809 106.977 149.591 106.977 150.372 106.977 150.372 101.876 155.539 102.399 152.187 93.89" fill="#414042"/><polygon points="299.356 93.788 301.768 93.788 298.489 86.862 301.267 88.203 297.878 80.69 299.491 81.401 296.759 74.076 294.027 81.401 295.64 80.69 292.251 88.203 295.029 86.862 291.75 93.788 294.162 93.788 290.81 102.296 295.977 101.773 295.977 106.874 296.759 106.874 297.541 106.874 297.541 101.773 302.708 102.296 299.356 93.788" fill="#414042"/><polygon points="184.045 97.556 187.248 97.556 182.894 91.237 186.582 92.461 182.082 85.607 184.224 86.256 180.596 79.574 176.969 86.256 179.111 85.607 174.61 92.461 178.299 91.237 173.945 97.556 177.148 97.556 172.697 105.317 179.558 104.84 179.558 109.494 180.596 109.494 181.635 109.494 181.635 104.84 188.496 105.317 184.045 97.556" fill="#414042"/><polygon points="24.716 94.155 27.919 94.155 23.566 87.837 27.254 89.061 22.754 82.207 24.896 82.856 21.268 76.174 17.64 82.856 19.782 82.207 15.282 89.061 18.97 87.837 14.617 94.155 17.82 94.155 13.368 101.917 20.23 101.44 20.23 106.093 21.268 106.093 22.306 106.093 22.306 101.44 29.168 101.917 24.716 94.155" fill="#414042"/><polygon points="387.168 109.726 391.431 109.726 385.636 99.544 390.546 101.515 384.555 90.47 387.407 91.515 382.577 80.746 377.748 91.515 380.599 90.47 374.609 101.515 379.519 99.544 373.723 109.726 377.987 109.726 372.062 122.235 381.195 121.466 381.195 128.965 382.577 128.965 383.959 128.965 383.959 121.466 393.093 122.235 387.168 109.726" fill="#414042"/><polygon points="28.795 102.819 35.579 98.61 42.624 94.863 49.296 90.468 56.264 86.583 63.244 82.721 69.908 78.316 77.169 74.941 84.112 71.029 90.724 66.537 97.525 63.046 102.534 68.692 107.593 74.747 113.074 80.443 117.776 87.034 124.349 82.393 131.213 78.554 137.789 74.287 143.909 69.335 150.662 65.343 157.285 61.154 163.452 56.271 169.992 49.766 176.79 46.325 181.667 51.917 187.553 59.134 192.005 65.466 197.396 70.929 202.794 76.235 209.665 72.351 216.057 67.532 222.733 63.157 229.181 58.447 236.333 54.802 242.759 50.055 249.373 45.594 256.091 41.903 260.129 47.485 265.052 52.871 269.358 58.707 273.819 64.421 277.878 70.436 281.958 76.738 288.665 71.333 296.029 67.254 302.959 62.557 309.718 57.624 316.498 52.713 323.12 47.579 330.117 43.602 334.456 49.834 338.222 56.844 343.004 63.233 346.29 70.519 350.645 77.164 354.821 84.073 361.789 81.074 368.357 77.54 375.391 75.055 382.078 71.815 388.749 68.528 395.547 65.527 402.313 62.907 408.682 66.696 415.086 70.768 421.878 74.212 428.054 78.627 434.357 82.846 441.092 86.372 447.576 90.299 453.786 94.662 460.048 98.938 466.537 102.843 472.979 106.836 481.425 106.874 473.683 105.292 467.432 100.359 461.259 95.345 455.206 90.204 449.707 84.421 443.622 79.313 437.837 73.862 431.415 69.141 425.319 64.051 419.446 58.711 413.289 53.69 407.669 47.852 400.147 50.519 392.609 52.708 385.229 55.368 377.797 57.845 370.321 60.2 362.707 62.972 357.579 56.553 352.478 50.449 347.1 44.589 342.299 38.246 337.066 32.266 331.777 26.636 324.522 30.375 316.977 34.027 309.629 38.041 302.197 41.88 294.794 45.902 289.081 40.357 282.822 35.513 277.071 30.107 271.508 24.502 265.449 19.446 259.55 13.808 253.299 18.483 246.741 22.144 240.246 25.894 233.932 29.916 227.98 34.519 221.712 38.618 215.207 42.451 208.359 37.903 201.893 32.902 195.145 28.311 188.687 23.321 181.893 18.802 175.119 12.153 169.88 17.566 164.381 24.98 158.865 30.181 154.033 36.056 148.262 40.991 143.267 46.705 137.964 52.111 132.182 57.037 126.866 61.916 121.276 57.742 115.599 53.102 110.289 48.051 105.021 42.961 99.336 38.311 93.367 43.598 87.056 48.457 81.204 53.842 75.299 59.154 69.449 64.538 63.261 69.525 57.076 74.515 50.762 79.354 45.119 84.971 39.051 90.086 33.132 95.382 26.677 100.055 20.619 105.19 14.527 111.097 21.862 106.783 28.795 102.819" fill="#414042"/></svg>