<svg xmlns="http://www.w3.org/2000/svg" viewBox="0 0 397.787 21.024"><path d="M263.627,37.714V10.8a1.54,1.54,0,0,1-.812-1.436,13.842,13.842,0,0,0-2.07.64c.353.017-2.4.418-2.015.746-.126-.015-1.97.312-2.023.67-.553-.955-2.6-2.067-2.144-.289-.294-.56-1.864.337-2.032.117.115.562-2.006.309-2.1-.071.286.964-2.006-.255-2.006.861,0-.617-2.217-1.784-2.217-1.452,0,.864-1.91,3.078-1.91,1.906,0-.13-2.179-1.711-2.179-1.039,0,.208-1.687-1.349-1.687,1.1,0,.89-1.786.444-1.786-.407,0-.243-1.571-1.995-1.571-.9,0,.232-2.34.862-2.34-.644,0-1.177-2.352-.889-2.352-.961,0-.389-2.221-.531-2.221-.774,0,.317-2.165,1.47-2.165.78,0,.063-2.019.058-2.019,1.054,0,.445-2.106-.733-2.106.146,0,.252-2.082.243-2.082.772,0-.756-2.1-1.09-2.1-1.366,0,.864-2.166,2.762-2.166,1.317,0-.669-1.91-2.07-1.91-2.017,0,1.2-2.115-1.254-2.115.242,0,.411-2.038-.371-2.038-.391,0,1.04-1.886-.617-1.886-1.117,0-1.452-2.217.69-2.217.434s-2.061,1.23-2.061-.339c0-.743-1.741-3-1.741-1.592,0-.937-2.05-.224-2.05-.369,0,.485-2.369-.295-2.369.817,0-.434-1.827-.771-1.827-1.245,0,.7-2.182-.774-2.182.133,0-.4-2.074-.081-2.074-.252,0,.114-1.9-.2-1.9-1,0,.5-1.994-.295-1.994-.414,0-.035-1.9-.521-1.9-1,0,.731-2.018-.889-2.018-.376,0,.458-2.035.545-2.035-.27,0,.122-2.119.066-2.119.571,0-.426-2.02-.019-2.02-.273,0-.53-1.989-.316-1.989-.936,0-.181-2.044-.273-2.044-.363,0-1.076-2.07,1.743-2.07.868,0,.385-2.052-.664-2.052-.908,0-.4-2.027,2.28-2.027,1.014,0-.743-2.019.184-2.019.418,0,.94-2.524-.86-2.524-1.126,0-.63-2.145,2.585-2.145,1.7,0-1.294-2.235.313-2.235.544,0,.2-1.929,1.209-1.929,1.36,0-.63-2.131.514-2.131.544,0,.112-2.3,1.194-2.3-.707a19.229,19.229,0,0,1-2.03,1.861c0-.32-2.155-1.455-2.155-1.106,0-.146-2.111-.268-2.111-.349,0-.244-2.284-.008-2.284.078,0,.136-1.872-3.13-1.872-1.664,0,.7-2.081-1.769-2.081-1.314a9.615,9.615,0,0,1-2.536,1.3c-.24.32-1.751-.084-2.007.261-.415-.73-2.175.387-2.346.693-.219-2.08-1.813.07-2.114.958a1.3,1.3,0,0,0-1.436-.877V37.71Z"/><path d="M399.141,37.718V9.36a1.48,1.48,0,0,0-.744.645c-1.189.011-2.472-.241-1.652.339-.188.363-1.294.246-1.817.2-.39-.271-1.343-.721-1.6-.614-.361-.739-1.3.963-1.523,1.27.015-.233-1.552-1.052-1.774-.848.762.37,0,.767-1.637,1.083.364.707-.9-.26-1.685-.152-.134-.735-1.49.713-1.766.173-.484.517-1.856,1.355-1.764.642-.35-.171-1.393-.668-1.779-.237.4-.338-1.774-1.6-1.774-1,0,.58-1.763,1.34-1.763-.129,0,1.4-1.752-.256-1.752-.245,0,.123-1.812.968-1.812.752,0-.862-1.691-1.619-1.691-.95,0,.631-1.8.142-1.8.216,0,1.011-1.755.417-1.755-.213,0-.4-1.911-.724-1.911.477,0,.233-1.6-.481-1.6-1.019,0-.249-1.509-1.963-1.509-1.339,0-.007-1.859-.465-1.859-.142,0-.672-1.782-.928-1.782-.725,0-.465-1.845,1.668-1.845,1.507,0-.141-1.726-.009-1.726-.088,0,.192-1.92-.068-1.92-.268,0,1.262-.848,2.461-.848,1.99,0-1.04-1.6.313-1.6.606,0-.431-1.742.175-1.742-.156,0-1.027-1.71.359-1.71-.344,0-.562-1.73-.013-1.73.314,0-.088-1.682.892-1.682.6,0,.545-1.8-.449-1.8-.269,0,.055-1.6,1.3-1.6,1.659,0,.075-1.821-1.464-1.821-.528,0,.685-1.77-.4-1.77.032,0,.381-1.836-1.043-1.836.582,0-.173-1.637-1.476-1.637-1.223,0-.249-1.839-.686-1.839-1.112,0,.332-2.156-.6-2.156.085,0-1.24-2.017-1.652-2.017-.508,0-.419-1.873.068-1.873.361,0-.533-1.772-.172-1.772-.153,0-.749-1.8-.574-1.8-.643,0,.869-1.738.706-1.738,1.056,0-.222-1.915-1.627-1.915-.978,0-.2-1.8-.034-1.8.266,0,1.174-1.737.52-1.737.611a8,8,0,0,1-1.586,1.344c0,.227-1.822-.566-1.822.085,0,.008-2.054-2.2-2.054-1.16,0,.168-1.507,2.378-1.507,1.868,0-.358-1.774-.02-1.774.495s-1.874.035-1.874.132c0,.709-1.909-.649-1.909-.436,0,.192-1.88-.151-1.88-.545,0,.223-1.825.356-1.825.658,0,.142-1.852-.563-1.852-.467,0,.188-1.854-.808-1.854.688,0-.175-1.817-.315-1.817-1.213,0-.588-1.9,1.166-1.9,1.27,0,1.37-1.806-.383-1.806-.981,0,.934-1.872-.368-1.872.4,0-.2-1.808-1.533-1.808-.771,0,.544-1.761.422-1.761.3,0,.389-1.79.787-1.79.815,0,1.876-1.742.465-1.742-.033,0-.556-1.655-1.829-1.655-1.566,0-1.164-1.776-.271-1.776.568,0-.96-1.771.962-1.771.493,0-.4-1.721-.833-1.721-.4,0-.484-1.9-.094-1.742-.032.114.365-2.036-.021-1.9-.176.73-.106-1.557-.745-1.841-.531-.419-.871-2.225-.757-1.877-.167-.294.482-2.164-.673-1.864-.922a2.712,2.712,0,0,0-1.959.206c-.07-.136-.664.139-1.164.449v26.4Z"/><path d="M132.333,5.241V37.71l-133.687,0v-26.8c.648-.762,1.766-.114,1.922.495-.387-.857,2.256-1.5,2-.3.12,1.168,2.111.123,1.988-.417.383.078,1.77.138,1.982-.352-.17,1.086,2.1-.452,1.908-1.254a2.206,2.206,0,0,0,1.977.061c-.255,1.165,2.111,1.238,2.111.314,0,.31,2.375-1.71,2.375-1.3,0,0,2.174.988,2.174,1.567,0,1.053,2.6.294,2.6-.016,0-.109,2.284,1.2,2.284.9,0-.632,1.3,2.623,1.3,2.449,0,.7,2.081-1.735,2.081-.894,0-.874,2.164,1.108,2.164,1.24,0-.38,1.954-.877,1.954-.594,0-.417,1.487-1.432,1.487-2.144,0,.966,2.082.085,2.082-.142,0-1.046,1.876-1.132,1.876-.837,0,1.065,2.417.439,2.417.981,0-.075,1.582-1.321,1.582-1.824,0,.049,2.084-.58,2.084-.137,0,.033,2.228-.618,2.228.347,0,.582,1.388-1.722,1.388-2.475,0,.3,2.175.063,2.175.311,0,.539,2.237-.65,2.237-.807,0,.894,1.19,2.413,1.19,2.13,0-.045,2.008-.608,2.008.183,0-.3,1.639.587,1.639,1.391,0-.746,1.99.308,1.99-.182,0,1.021,1.518-3.2,1.518-1.775,0-.048,2.1.682,2.1.64,0,.513,1.651-2.081,1.651-1.518,0,.508,2.225,1.606,2.225,1.4,0,.144,1.676-3,1.676-2.06,0,1.312,1.988-.848,1.988.137,0-.343,1.967.776,1.967.108,0,.216,1.983.742,1.983.421,0,.563,2.122-1.843,2.122-1.071,0-.567,2.163-.654,2.163-.5,0-.577,2.293,1.1,2.293,1.327,0-.069,2.176-1.39,2.176-.3,0,.79,2.142-1.553,2.142-.8,0,.347,2.259,1.994,2.259.858,0,1.638,2.065-1.438,2.065-1.876,0-.794,2.107.335,2.107.8,0-1.017,2.077-1.362,2.077.436,0,.707,1.984-1.144,1.984-1.032,0,.019,2.079.145,2.079.608,0,.058,2.032.8,2.032-.224,0,.543,2.015-.714,2.015-1.407,0-.025,2.063,1.26,2.063,1.049,0,.663,2.026.259,2.026.821,0-.71,2.033-.026,2.033-.134,0-.7,2.037-.656,2.037-.062,0-.561,2-.373,2,.383,0,.329,2.1-1.2,2.1-.394,0,.186,2-.73,2,.459,0,.092,2.092.272,2.092-.074,0,.09,2.016-.014,2.016.336,0-2.148,2.1.094,2.1-.4,0,.406,1.887,1.959,1.887,1.809,0,1.345,1.964-.981,2.164-1.62.03-1.189,2.787,1.365,2.19,1.456.416-.3,1.531.087,2.11-.584-.5.064,1.876-1.186,2-.929.359-.452,2.077.15,2.119-.265C131.208,5.491,131.745,5.335,132.333,5.241Z"/></svg>